<svg width="100" height="32" viewBox="0 0 100 32" fill="none" xmlns="http://www.w3.org/2000/svg">
  <path d="M20.5 8.5c-0.3-0.1-0.6-0.1-0.9-0.1h-2.5c-0.2 0-0.4 0.1-0.5 0.3l-1.5 9.5c0 0.2 0.2 0.4 0.4 0.4h1.8c0.2 0 0.4-0.1 0.5-0.3l0.2-1.2c0.1-0.2 0.3-0.3 0.5-0.3h0.9c2.1 0 3.7-1.3 4.1-3.2 0.2-0.8 0.1-1.5-0.2-2.1-0.3-0.6-0.8-1-1.4-1.2zM21.2 12.5c-0.2 1.1-1.2 1.1-2.1 1.1h-0.5l0.3-1.8c0-0.1 0.1-0.2 0.2-0.2h0.3c0.5 0 1 0 1.3 0.2 0.2 0.1 0.3 0.3 0.3 0.5 0 0.1 0 0.2-0.5 0.2z" fill="#003087"/>
  <path d="M28.5 8.5c-0.3-0.1-0.6-0.1-0.9-0.1h-2.5c-0.2 0-0.4 0.1-0.5 0.3l-1.5 9.5c0 0.2 0.2 0.4 0.4 0.4h1.8c0.2 0 0.4-0.1 0.5-0.3l0.2-1.2c0.1-0.2 0.3-0.3 0.5-0.3h0.9c2.1 0 3.7-1.3 4.1-3.2 0.2-0.8 0.1-1.5-0.2-2.1-0.3-0.6-0.8-1-1.4-1.2zM29.2 12.5c-0.2 1.1-1.2 1.1-2.1 1.1h-0.5l0.3-1.8c0-0.1 0.1-0.2 0.2-0.2h0.3c0.5 0 1 0 1.3 0.2 0.2 0.1 0.3 0.3 0.3 0.5 0 0.1 0 0.2-0.5 0.2z" fill="#009CDE"/>
  <path d="M35.5 8.5c-0.3-0.1-0.6-0.1-0.9-0.1h-2.5c-0.2 0-0.4 0.1-0.5 0.3l-1.5 9.5c0 0.2 0.2 0.4 0.4 0.4h1.8c0.2 0 0.4-0.1 0.5-0.3l0.2-1.2c0.1-0.2 0.3-0.3 0.5-0.3h0.9c2.1 0 3.7-1.3 4.1-3.2 0.2-0.8 0.1-1.5-0.2-2.1-0.3-0.6-0.8-1-1.4-1.2zM36.2 12.5c-0.2 1.1-1.2 1.1-2.1 1.1h-0.5l0.3-1.8c0-0.1 0.1-0.2 0.2-0.2h0.3c0.5 0 1 0 1.3 0.2 0.2 0.1 0.3 0.3 0.3 0.5 0 0.1 0 0.2-0.5 0.2z" fill="#012169"/>
  <path d="M42.5 8.5c-0.3-0.1-0.6-0.1-0.9-0.1h-2.5c-0.2 0-0.4 0.1-0.5 0.3l-1.5 9.5c0 0.2 0.2 0.4 0.4 0.4h1.8c0.2 0 0.4-0.1 0.5-0.3l0.2-1.2c0.1-0.2 0.3-0.3 0.5-0.3h0.9c2.1 0 3.7-1.3 4.1-3.2 0.2-0.8 0.1-1.5-0.2-2.1-0.3-0.6-0.8-1-1.4-1.2zM43.2 12.5c-0.2 1.1-1.2 1.1-2.1 1.1h-0.5l0.3-1.8c0-0.1 0.1-0.2 0.2-0.2h0.3c0.5 0 1 0 1.3 0.2 0.2 0.1 0.3 0.3 0.3 0.5 0 0.1 0 0.2-0.5 0.2z" fill="#0070BA"/>
  <path d="M49.5 8.5c-0.3-0.1-0.6-0.1-0.9-0.1h-2.5c-0.2 0-0.4 0.1-0.5 0.3l-1.5 9.5c0 0.2 0.2 0.4 0.4 0.4h1.8c0.2 0 0.4-0.1 0.5-0.3l0.2-1.2c0.1-0.2 0.3-0.3 0.5-0.3h0.9c2.1 0 3.7-1.3 4.1-3.2 0.2-0.8 0.1-1.5-0.2-2.1-0.3-0.6-0.8-1-1.4-1.2zM50.2 12.5c-0.2 1.1-1.2 1.1-2.1 1.1h-0.5l0.3-1.8c0-0.1 0.1-0.2 0.2-0.2h0.3c0.5 0 1 0 1.3 0.2 0.2 0.1 0.3 0.3 0.3 0.5 0 0.1 0 0.2-0.5 0.2z" fill="#1546A0"/>
  <path d="M56.5 8.5c-0.3-0.1-0.6-0.1-0.9-0.1h-2.5c-0.2 0-0.4 0.1-0.5 0.3l-1.5 9.5c0 0.2 0.2 0.4 0.4 0.4h1.8c0.2 0 0.4-0.1 0.5-0.3l0.2-1.2c0.1-0.2 0.3-0.3 0.5-0.3h0.9c2.1 0 3.7-1.3 4.1-3.2 0.2-0.8 0.1-1.5-0.2-2.1-0.3-0.6-0.8-1-1.4-1.2zM57.2 12.5c-0.2 1.1-1.2 1.1-2.1 1.1h-0.5l0.3-1.8c0-0.1 0.1-0.2 0.2-0.2h0.3c0.5 0 1 0 1.3 0.2 0.2 0.1 0.3 0.3 0.3 0.5 0 0.1 0 0.2-0.5 0.2z" fill="#0070BA"/>
  <path d="M63.5 8.5c-0.3-0.1-0.6-0.1-0.9-0.1h-2.5c-0.2 0-0.4 0.1-0.5 0.3l-1.5 9.5c0 0.2 0.2 0.4 0.4 0.4h1.8c0.2 0 0.4-0.1 0.5-0.3l0.2-1.2c0.1-0.2 0.3-0.3 0.5-0.3h0.9c2.1 0 3.7-1.3 4.1-3.2 0.2-0.8 0.1-1.5-0.2-2.1-0.3-0.6-0.8-1-1.4-1.2zM64.2 12.5c-0.2 1.1-1.2 1.1-2.1 1.1h-0.5l0.3-1.8c0-0.1 0.1-0.2 0.2-0.2h0.3c0.5 0 1 0 1.3 0.2 0.2 0.1 0.3 0.3 0.3 0.5 0 0.1 0 0.2-0.5 0.2z" fill="#003087"/>
  <path d="M70.5 8.5c-0.3-0.1-0.6-0.1-0.9-0.1h-2.5c-0.2 0-0.4 0.1-0.5 0.3l-1.5 9.5c0 0.2 0.2 0.4 0.4 0.4h1.8c0.2 0 0.4-0.1 0.5-0.3l0.2-1.2c0.1-0.2 0.3-0.3 0.5-0.3h0.9c2.1 0 3.7-1.3 4.1-3.2 0.2-0.8 0.1-1.5-0.2-2.1-0.3-0.6-0.8-1-1.4-1.2zM71.2 12.5c-0.2 1.1-1.2 1.1-2.1 1.1h-0.5l0.3-1.8c0-0.1 0.1-0.2 0.2-0.2h0.3c0.5 0 1 0 1.3 0.2 0.2 0.1 0.3 0.3 0.3 0.5 0 0.1 0 0.2-0.5 0.2z" fill="#009CDE"/>
  <path d="M77.5 8.5c-0.3-0.1-0.6-0.1-0.9-0.1h-2.5c-0.2 0-0.4 0.1-0.5 0.3l-1.5 9.5c0 0.2 0.2 0.4 0.4 0.4h1.8c0.2 0 0.4-0.1 0.5-0.3l0.2-1.2c0.1-0.2 0.3-0.3 0.5-0.3h0.9c2.1 0 3.7-1.3 4.1-3.2 0.2-0.8 0.1-1.5-0.2-2.1-0.3-0.6-0.8-1-1.4-1.2zM78.2 12.5c-0.2 1.1-1.2 1.1-2.1 1.1h-0.5l0.3-1.8c0-0.1 0.1-0.2 0.2-0.2h0.3c0.5 0 1 0 1.3 0.2 0.2 0.1 0.3 0.3 0.3 0.5 0 0.1 0 0.2-0.5 0.2z" fill="#012169"/>
  <path d="M84.5 8.5c-0.3-0.1-0.6-0.1-0.9-0.1h-2.5c-0.2 0-0.4 0.1-0.5 0.3l-1.5 9.5c0 0.2 0.2 0.4 0.4 0.4h1.8c0.2 0 0.4-0.1 0.5-0.3l0.2-1.2c0.1-0.2 0.3-0.3 0.5-0.3h0.9c2.1 0 3.7-1.3 4.1-3.2 0.2-0.8 0.1-1.5-0.2-2.1-0.3-0.6-0.8-1-1.4-1.2zM85.2 12.5c-0.2 1.1-1.2 1.1-2.1 1.1h-0.5l0.3-1.8c0-0.1 0.1-0.2 0.2-0.2h0.3c0.5 0 1 0 1.3 0.2 0.2 0.1 0.3 0.3 0.3 0.5 0 0.1 0 0.2-0.5 0.2z" fill="#0070BA"/>
  <path d="M91.5 8.5c-0.3-0.1-0.6-0.1-0.9-0.1h-2.5c-0.2 0-0.4 0.1-0.5 0.3l-1.5 9.5c0 0.2 0.2 0.4 0.4 0.4h1.8c0.2 0 0.4-0.1 0.5-0.3l0.2-1.2c0.1-0.2 0.3-0.3 0.5-0.3h0.9c2.1 0 3.7-1.3 4.1-3.2 0.2-0.8 0.1-1.5-0.2-2.1-0.3-0.6-0.8-1-1.4-1.2zM92.2 12.5c-0.2 1.1-1.2 1.1-2.1 1.1h-0.5l0.3-1.8c0-0.1 0.1-0.2 0.2-0.2h0.3c0.5 0 1 0 1.3 0.2 0.2 0.1 0.3 0.3 0.3 0.5 0 0.1 0 0.2-0.5 0.2z" fill="#1546A0"/>
  <path d="M98.5 8.5c-0.3-0.1-0.6-0.1-0.9-0.1h-2.5c-0.2 0-0.4 0.1-0.5 0.3l-1.5 9.5c0 0.2 0.2 0.4 0.4 0.4h1.8c0.2 0 0.4-0.1 0.5-0.3l0.2-1.2c0.1-0.2 0.3-0.3 0.5-0.3h0.9c2.1 0 3.7-1.3 4.1-3.2 0.2-0.8 0.1-1.5-0.2-2.1-0.3-0.6-0.8-1-1.4-1.2zM99.2 12.5c-0.2 1.1-1.2 1.1-2.1 1.1h-0.5l0.3-1.8c0-0.1 0.1-0.2 0.2-0.2h0.3c0.5 0 1 0 1.3 0.2 0.2 0.1 0.3 0.3 0.3 0.5 0 0.1 0 0.2-0.5 0.2z" fill="#0070BA"/>
</svg> 